<svg width="1032" height="704" viewBox="0 0 1032 704" fill="none" xmlns="http://www.w3.org/2000/svg">
<path d="M426.421 447.033C418.038 478.019 389.328 497.209 389.328 497.209C389.328 497.209 374.207 466.161 382.589 435.176C390.971 404.19 419.682 385 419.682 385C419.682 385 434.803 416.047 426.421 447.033Z" fill="#D1FFD6"/>
<path d="M350.166 447.033C358.548 478.019 387.259 497.209 387.259 497.209C387.259 497.209 402.38 466.161 393.998 435.176C385.615 404.19 356.905 385 356.905 385C356.905 385 341.784 416.047 350.166 447.033Z" fill="#D1FFD6"/>
<path d="M362.483 440.374C385.484 462.764 388.293 497.183 388.293 497.183C388.293 497.183 353.811 495.301 330.81 472.91C307.809 450.52 305 416.101 305 416.101C305 416.101 339.482 417.983 362.483 440.374Z" fill="#3F3D56"/>
<path d="M414.104 440.374C391.103 462.764 388.293 497.183 388.293 497.183C388.293 497.183 422.776 495.301 445.776 472.91C468.777 450.52 471.587 416.101 471.587 416.101C471.587 416.101 437.104 417.983 414.104 440.374Z" fill="#3F3D56"/>
<path d="M978.752 627.787C984.143 647.715 1002.61 660.057 1002.61 660.057C1002.61 660.057 1012.33 640.09 1006.94 620.161C1001.55 600.233 983.086 587.891 983.086 587.891C983.086 587.891 973.361 607.859 978.752 627.787Z" fill="#D1FFD6"/>
<path d="M986.674 623.504C1001.47 637.905 1003.27 660.041 1003.27 660.041C1003.27 660.041 981.096 658.83 966.303 644.43C951.511 630.03 949.704 607.893 949.704 607.893C949.704 607.893 971.881 609.104 986.674 623.504Z" fill="#3F3D56"/>
<path d="M115.594 212.041V659.786H686.232V212.041H115.594ZM490.212 438.922C490.212 442.967 489.971 447.009 489.49 451.025L487.002 450.727C486.531 454.644 485.824 458.53 484.883 462.361L487.317 462.959C486.351 466.892 485.146 470.763 483.711 474.551L481.366 473.662C479.966 477.353 478.343 480.956 476.505 484.45L478.724 485.616C476.839 489.199 474.74 492.665 472.438 495.995L470.376 494.569C468.131 497.815 465.693 500.924 463.075 503.877L464.951 505.54C462.267 508.568 459.404 511.432 456.377 514.117L454.713 512.241C451.762 514.859 448.655 517.297 445.411 519.541L446.837 521.603C443.51 523.903 440.047 526.002 436.468 527.887L435.3 525.669C431.808 527.507 428.208 529.131 424.519 530.533L425.409 532.876C421.624 534.313 417.756 535.518 413.825 536.485L413.227 534.052C409.396 534.995 405.511 535.705 401.593 536.177L401.893 538.665C397.877 539.147 393.835 539.39 389.79 539.393L389.788 536.892L389.741 536.893C385.811 536.892 381.885 536.656 377.983 536.188L377.685 538.677C373.667 538.195 369.682 537.471 365.751 536.511L366.347 534.074C362.512 533.135 358.738 531.963 355.045 530.564L354.157 532.908C350.371 531.473 346.675 529.809 343.089 527.927L344.255 525.708C340.761 523.873 337.38 521.828 334.133 519.584L332.708 521.647C329.379 519.346 326.19 516.848 323.159 514.166L324.822 512.288C321.867 509.672 319.073 506.881 316.453 503.93L314.578 505.595C311.893 502.568 309.391 499.384 307.087 496.059L309.148 494.631C306.902 491.388 304.854 488.013 303.015 484.523L300.797 485.691C298.911 482.11 297.244 478.418 295.804 474.635L298.147 473.744C296.744 470.056 295.567 466.286 294.622 462.454L292.188 463.055C291.22 459.125 290.491 455.14 290.004 451.122L292.491 450.822C292.014 446.889 291.773 442.931 291.77 438.969L289.27 439.017L289.271 438.884C289.272 434.884 289.509 430.887 289.981 426.915L292.469 427.212C292.936 423.293 293.64 419.407 294.577 415.574L292.141 414.978C293.104 411.044 294.305 407.172 295.737 403.384L298.082 404.271C299.478 400.578 301.098 396.974 302.932 393.478L300.713 392.313C302.594 388.729 304.69 385.261 306.988 381.928L309.052 383.352C311.293 380.103 313.728 376.993 316.343 374.037L314.465 372.376C317.147 369.346 320.007 366.479 323.031 363.791L324.697 365.666C327.646 363.045 330.751 360.604 333.993 358.356L332.565 356.295C335.89 353.991 339.35 351.889 342.927 350L344.098 352.218C347.588 350.377 351.187 348.749 354.874 347.344L353.981 345.001C357.764 343.56 361.631 342.351 365.561 341.381L366.162 343.814C369.992 342.867 373.877 342.153 377.794 341.677L377.491 339.19C381.508 338.703 385.549 338.456 389.595 338.451L389.598 340.952C389.646 340.952 389.693 340.951 389.741 340.951C393.639 340.952 397.533 341.184 401.404 341.644L401.699 339.155C405.718 339.633 409.704 340.352 413.636 341.31L413.042 343.746C416.878 344.682 420.653 345.85 424.348 347.245L425.234 344.899C429.022 346.331 432.72 347.991 436.307 349.87L435.143 352.091C438.639 353.923 442.021 355.965 445.271 358.205L446.694 356.141C450.025 358.439 453.216 360.934 456.25 363.612L454.589 365.492C457.546 368.105 460.343 370.893 462.965 373.842L464.839 372.176C467.527 375.199 470.032 378.381 472.34 381.703L470.279 383.134C472.528 386.374 474.58 389.748 476.422 393.236L478.639 392.064C480.529 395.644 482.2 399.335 483.644 403.116L481.301 404.01C482.708 407.697 483.889 411.466 484.837 415.296L487.271 414.693C488.242 418.622 488.975 422.606 489.466 426.623L486.98 426.926C487.459 430.843 487.702 434.785 487.71 438.73H490.212L490.212 438.922Z" fill="#3F3D56"/>
<path d="M141 244.709C146.523 244.709 151 240.232 151 234.709C151 229.186 146.523 224.709 141 224.709C135.477 224.709 131 229.186 131 234.709C131 240.232 135.477 244.709 141 244.709Z" fill="#D1FFD6"/>
<path d="M172 244.709C177.523 244.709 182 240.232 182 234.709C182 229.186 177.523 224.709 172 224.709C166.477 224.709 162 229.186 162 234.709C162 240.232 166.477 244.709 172 244.709Z" fill="#D1FFD6"/>
<path d="M203 244.709C208.523 244.709 213 240.232 213 234.709C213 229.186 208.523 224.709 203 224.709C197.477 224.709 193 229.186 193 234.709C193 240.232 197.477 244.709 203 244.709Z" fill="#D1FFD6"/>
<path d="M659 255.709H141V257.709H659V255.709Z" fill="#E6E6E6"/>
<path d="M488 576.709H289V578.709H488V576.709Z" fill="#E6E6E6"/>
<path d="M488 597.709H289V599.709H488V597.709Z" fill="#E6E6E6"/>
<path d="M488 618.709H289V620.709H488V618.709Z" fill="#E6E6E6"/>
<path d="M1032 658.709H0V660.709H1032V658.709Z" fill="#3F3D56"/>
</svg>
