<svg width="978" height="783" viewBox="0 0 978 783" fill="none" xmlns="http://www.w3.org/2000/svg">
<g clip-path="url(#clip0)">
<path d="M977.716 357.915C977.716 403.885 964.486 447.455 940.816 486.455C936.726 493.205 932.326 499.812 927.616 506.275C907.576 533.815 882.116 558.665 852.366 579.965C850.546 581.265 848.713 582.552 846.866 583.825C846.166 584.305 845.476 584.785 844.776 585.265C841.866 587.235 838.923 589.175 835.946 591.085C835.006 591.685 834.066 592.275 833.126 592.865C832.326 593.375 831.516 593.875 830.706 594.375C822.036 599.735 813.07 604.805 803.806 609.585C802.796 610.105 801.776 610.625 800.756 611.145C799.876 611.585 798.996 612.035 798.106 612.475C797.486 612.785 796.856 613.095 796.236 613.395C795.196 613.915 794.146 614.425 793.096 614.925C790.366 616.235 787.616 617.518 784.846 618.775C783.576 619.355 782.296 619.935 781.006 620.495C780.995 620.505 780.981 620.512 780.966 620.515C779.686 621.085 778.406 621.645 777.116 622.195C775.936 622.705 774.746 623.215 773.556 623.705C769.976 625.215 766.366 626.675 762.726 628.085C761.976 628.385 761.216 628.675 760.456 628.965C759.406 629.365 758.366 629.765 757.306 630.155C755.956 630.655 754.616 631.155 753.266 631.645C752.006 632.105 750.746 632.555 749.476 633.005L749.206 633.095C747.936 633.545 746.666 633.985 745.386 634.415C738.806 636.675 732.13 638.788 725.356 640.755C724.506 641.005 723.656 641.245 722.806 641.485C722.426 641.605 722.036 641.715 721.646 641.815C720.656 642.095 719.666 642.375 718.666 642.645C717.446 642.995 716.216 643.325 714.976 643.645C711.526 644.565 708.06 645.445 704.576 646.285C703.396 646.575 702.226 646.855 701.046 647.125C701.025 647.137 701.001 647.144 700.976 647.145C699.796 647.415 698.616 647.685 697.436 647.955C695.786 648.335 694.116 648.705 692.446 649.045C690.516 649.465 688.576 649.865 686.626 650.265C685.416 650.505 684.206 650.745 682.996 650.975C681.786 651.215 680.566 651.445 679.356 651.665C673.266 652.795 667.126 653.812 660.936 654.715C658.636 655.045 656.336 655.365 654.016 655.675C652.596 655.865 651.166 656.045 649.736 656.215C648.486 656.365 647.226 656.515 645.976 656.655C644.726 656.805 643.476 656.935 642.216 657.075H642.206C642.086 657.095 641.966 657.105 641.846 657.115C639.796 657.335 637.736 657.535 635.676 657.735C634.466 657.855 633.256 657.955 632.036 658.055C630.946 658.155 629.846 658.245 628.746 658.325C625.456 658.595 622.156 658.825 618.846 659.015C617.776 659.085 616.706 659.145 615.636 659.195C613.356 659.325 611.076 659.425 608.786 659.515C607.836 659.555 606.876 659.595 605.926 659.625C603.366 659.715 600.796 659.775 598.226 659.825C596.776 659.855 595.326 659.875 593.876 659.885C592.156 659.905 590.436 659.915 588.716 659.915C505.506 659.915 409.866 631.415 331.086 589.985C311.283 579.63 292.125 568.085 273.716 555.415C263.056 548.045 252.996 540.465 243.656 532.705C174.046 475.005 143.916 408.515 199.716 357.915C206.916 351.385 214.673 344.588 222.986 337.525C229.276 332.175 235.843 326.688 242.686 321.065C340.156 241.005 489.546 135.985 588.716 55.9149C755.876 -79.0451 977.716 191.125 977.716 357.915Z" fill="#D1FFD6"/>
<path d="M620.716 510.415L579.686 515.735L577.596 516.005L522.986 523.085L273.716 555.415C263.056 548.045 252.996 540.465 243.656 532.705L528.916 515.845L578.256 512.925L580.326 512.805L620.716 510.415Z" fill="#F2F2F2"/>
<path d="M439.716 309.415L222.986 337.525C229.276 332.175 235.843 326.688 242.686 321.065L439.716 309.415Z" fill="#F2F2F2"/>
<path d="M940.816 486.455C936.726 493.205 932.326 499.812 927.616 506.275L739.316 481.855L635.716 468.415L737.626 474.445L940.816 486.455Z" fill="#F2F2F2"/>
<path d="M852.366 579.965C783.056 629.605 690.446 659.915 588.716 659.915C505.506 659.915 409.866 631.415 331.086 589.985C337.316 573.835 345.996 560.745 358.066 554.115C358.366 553.945 358.676 553.775 358.986 553.625C364.141 550.976 369.832 549.536 375.626 549.415C446.626 547.415 438.626 627.415 527.626 517.415C582.976 449.005 645.676 425.465 688.536 433.075C689.326 433.215 690.106 433.365 690.886 433.525C715.726 438.685 733.496 454.585 738.626 478.415C752.626 543.415 711.626 595.415 786.626 579.415C808.327 574.899 830.744 575.087 852.366 579.965V579.965Z" fill="#3F3D56"/>
<path d="M642.107 657.262C607.227 637.817 585.513 611.271 577.567 578.359C571.668 553.924 573.363 526.427 582.606 496.632C589.457 474.665 599.729 453.915 613.045 435.148C683.683 335.161 690.058 270.01 682.968 232.961C675.194 192.338 649.937 175.467 649.682 175.301L650.773 173.625C651.033 173.794 676.956 191.057 684.917 232.505C689.506 256.399 687.347 283.645 678.5 313.486C667.488 350.623 646.015 391.945 614.678 436.302C601.485 454.898 591.305 475.457 584.516 497.224C569.357 546.091 567.213 613.221 643.08 655.516L642.107 657.262Z" fill="#D0CDE1"/>
<path d="M580.402 468.12C552.904 452.792 553.67 428.499 559.154 410.819C561.586 403.022 565.232 395.656 569.959 388.994C594.705 353.966 596.941 331.211 594.46 318.29C591.765 304.259 583.119 298.499 583.032 298.443L584.122 296.766C584.506 297.015 593.57 303.054 596.424 317.913C600.14 337.261 591.786 361.565 571.592 390.149C566.987 396.639 563.434 403.814 561.064 411.411C555.799 428.385 555.049 451.698 581.376 466.374L580.402 468.12Z" fill="#D0CDE1"/>
<path d="M704.119 254.121L703.146 252.374C729.472 237.698 728.722 214.384 723.457 197.412C721.088 189.815 717.535 182.639 712.929 176.149C692.736 147.565 684.381 123.261 688.098 103.913C690.952 89.0543 700.016 83.0153 700.4 82.7657L701.491 84.4415C701.404 84.4992 692.714 90.3351 690.046 104.369C687.592 117.283 689.853 140.018 714.563 174.994C719.289 181.656 722.935 189.021 725.367 196.819C730.852 214.499 731.617 238.792 704.119 254.121Z" fill="#D0CDE1"/>
<path d="M762.83 154.618C758.482 161.282 751.666 165.946 743.879 167.584C736.093 169.222 727.976 167.699 721.312 163.352C714.648 159.004 709.984 152.188 708.346 144.402C706.709 136.616 708.231 128.498 712.578 121.834C721.631 107.958 767.21 93 767.21 93C767.21 93 771.883 140.742 762.83 154.618Z" fill="#3F3D56"/>
<path d="M751.83 61.6183C747.482 68.282 740.666 72.9458 732.879 74.5837C725.093 76.2215 716.976 74.6993 710.312 70.3518C703.648 66.0043 698.984 59.1878 697.346 51.4017C695.709 43.6156 697.231 35.4978 701.578 28.834C710.631 14.9575 756.21 3.05176e-05 756.21 3.05176e-05C756.21 3.05176e-05 760.883 47.7418 751.83 61.6183Z" fill="#3F3D56"/>
<path d="M750.406 343.135C748.486 342.685 703.196 332.155 688.096 339.345C681.741 342.371 676.605 347.47 673.532 353.803C670.46 360.137 669.635 367.327 671.192 374.192C672.749 381.056 676.596 387.187 682.1 391.575C687.604 395.963 694.437 398.347 701.476 398.335C703.73 398.336 705.977 398.088 708.176 397.595C710.448 397.087 712.655 396.325 714.756 395.325C729.856 388.125 750.216 346.325 751.076 344.545L751.626 343.425L750.406 343.135ZM713.896 393.515C706.953 396.822 698.98 397.236 691.732 394.665C684.484 392.093 678.554 386.748 675.246 379.805C671.939 372.861 671.526 364.889 674.097 357.64C676.668 350.392 682.013 344.462 688.956 341.155C692.476 339.475 697.856 338.845 703.996 338.845C720.796 338.845 743.256 343.595 748.716 344.805C745.306 351.645 727.036 387.255 713.896 393.515V393.515Z" fill="#D0CDE1"/>
<path d="M614.114 173.247C606.391 173.259 598.943 170.377 593.241 165.168C580.88 153.898 573.544 107.982 573.237 106.032L573.044 104.8L574.289 104.879C576.257 105.005 622.655 108.084 635.015 119.354C639.639 123.566 642.879 129.078 644.311 135.167C645.743 141.255 645.299 147.634 643.037 153.465C640.776 159.296 636.803 164.306 631.64 167.837C626.478 171.368 620.368 173.254 614.114 173.247H614.114ZM575.419 106.966C576.699 114.495 583.835 153.886 594.588 163.691C600.272 168.869 607.78 171.578 615.461 171.222C623.142 170.866 630.367 167.474 635.548 161.792C640.728 156.11 643.441 148.604 643.088 140.923C642.736 133.242 639.347 126.015 633.667 120.832V120.832C622.915 111.028 583.035 107.547 575.419 106.966Z" fill="#D0CDE1"/>
<path d="M572.341 245.093C578.216 250.455 581.72 257.931 582.084 265.876C582.449 273.821 579.643 281.586 574.284 287.463C568.925 293.341 561.452 296.849 553.506 297.218C545.561 297.586 537.795 294.785 531.915 289.429C519.672 278.266 512.225 230.877 512.225 230.877C512.225 230.877 560.098 233.93 572.341 245.093Z" fill="#3F3D56"/>
<path d="M664.286 246.195C663.458 242.38 661.352 238.961 658.317 236.505C655.283 234.048 651.501 232.701 647.596 232.685C646.366 232.689 645.139 232.823 643.936 233.085C634.996 235.025 619.106 254.495 618.436 255.315L617.646 256.285L618.766 256.845C619.646 257.285 638.786 266.765 648.806 266.765C649.606 266.774 650.404 266.697 651.186 266.535C655.619 265.573 659.489 262.89 661.946 259.076C664.402 255.262 665.244 250.629 664.286 246.195H664.286ZM660.266 257.995C659.198 259.67 657.807 261.115 656.174 262.247C654.542 263.378 652.7 264.173 650.756 264.585C643.576 266.145 625.516 257.855 620.796 255.605C624.156 251.605 637.176 236.595 644.366 235.035C647.288 234.402 650.332 234.651 653.113 235.748C655.894 236.846 658.287 238.744 659.989 241.202C661.691 243.66 662.626 246.567 662.675 249.556C662.724 252.545 661.886 255.482 660.266 257.995V257.995Z" fill="#D0CDE1"/>
<path d="M422.216 725.47C652.795 725.47 839.716 721.128 839.716 715.772C839.716 710.417 652.795 706.075 422.216 706.075C191.637 706.075 4.71631 710.417 4.71631 715.772C4.71631 721.128 191.637 725.47 422.216 725.47Z" fill="#3F3D56"/>
<path d="M422.216 754.562C581.848 754.562 711.255 751.556 711.255 747.848C711.255 744.14 581.848 741.134 422.216 741.134C262.585 741.134 133.178 744.14 133.178 747.848C133.178 751.556 262.585 754.562 422.216 754.562Z" fill="#3F3D56"/>
<path d="M422.348 782.417C552.567 782.417 658.13 779.965 658.13 776.94C658.13 773.915 552.567 771.464 422.348 771.464C292.13 771.464 186.567 773.915 186.567 776.94C186.567 779.965 292.13 782.417 422.348 782.417Z" fill="#3F3D56"/>
<path d="M7.21631 410.575C7.21631 410.575 -6.78369 443.575 4.21631 446.575C15.2163 449.575 20.2163 410.575 20.2163 410.575H7.21631Z" fill="#FFB8B8"/>
<path d="M48.716 229.075L12.216 338.575L4.216 397.575V416.575L25.216 414.575V398.575L58.216 297.575L48.716 229.075Z" fill="#575A89"/>
<path d="M75.2163 318.575L73.2163 340.575L137.216 344.575V295.575C137.216 289.575 75.2163 318.575 75.2163 318.575Z" fill="#FFB8B8"/>
<path d="M42.2163 657.575L39.2163 685.575L72.2163 682.575C72.2163 682.575 63.2163 660.575 62.2163 657.575C61.2163 654.575 42.2163 657.575 42.2163 657.575Z" fill="#FFB8B8"/>
<path d="M152.216 606.575L148.216 633.575L169.216 648.575L167.216 612.575L152.216 606.575Z" fill="#FFB8B8"/>
<path d="M91.2163 326.575H73.2163L67.2163 337.575C67.2163 337.575 28.2163 365.575 28.2163 423.575V551.575C28.2163 551.575 27.2163 642.575 38.2163 652.575L39.3147 659.165L40.2163 664.575L64.2163 660.575C64.2163 660.575 62.2163 652.575 65.2163 645.575C68.2163 638.575 63.2163 599.575 63.2163 599.575L69.2163 538.575L105.216 449.575L150.216 513.575C150.216 513.575 145.216 602.575 147.216 605.575C149.216 608.575 146.216 617.575 146.216 617.575H172.216L189.216 498.575L151.216 391.575C151.216 391.575 155.216 342.575 141.216 337.575C127.216 332.575 91.2163 326.575 91.2163 326.575Z" fill="#2F2E41"/>
<path d="M162.216 635.575C162.216 635.575 158.941 620.575 153.079 617.575C147.216 614.575 138.216 622.575 138.216 622.575C138.216 622.575 114.216 627.575 124.216 652.575L128.216 658.575C128.216 658.575 135.216 655.575 135.216 670.575C135.216 685.575 158.216 699.575 166.216 699.575C174.216 699.575 177.216 692.575 175.216 680.575C173.216 668.575 169.216 637.256 169.216 637.256L162.216 635.575Z" fill="#2F2E41"/>
<path d="M61.1413 674.152C61.1413 674.152 47.0279 668.107 41.1811 671.137C35.3343 674.167 36.6199 686.14 36.6199 686.14C36.6199 686.14 26.7516 708.581 52.911 714.96L60.1184 715.188C60.1184 715.188 61.7417 707.747 73.9526 716.459C86.1636 725.171 110.918 714.578 115.565 708.066C120.211 701.553 116.255 695.045 105.324 689.704C94.3939 684.363 66.5753 669.43 66.5753 669.43L61.1413 674.152Z" fill="#2F2E41"/>
<path d="M100.716 196.075C119.494 196.075 134.716 180.853 134.716 162.075C134.716 143.297 119.494 128.075 100.716 128.075C81.9386 128.075 66.7163 143.297 66.7163 162.075C66.7163 180.853 81.9386 196.075 100.716 196.075Z" fill="#FFB8B8"/>
<path d="M81.216 175.575L75.216 213.575L111.216 216.575L115.216 178.575L81.216 175.575Z" fill="#FFB8B8"/>
<path d="M141.441 235.017C131.415 218.642 116.048 206.226 97.9317 199.865C95.1416 198.896 82.3272 199.074 74.5926 198.963C69.5797 198.894 64.6739 200.416 60.5801 203.31C56.4862 206.204 53.415 210.321 51.8076 215.069C42.5479 242.305 30.2985 295.74 67.2162 316.575L75.2162 323.575L146.216 303.575C146.216 303.575 141.216 291.575 144.216 287.575C147.216 283.575 157.216 259.575 146.216 242.575C144.502 239.925 142.909 237.397 141.441 235.017Z" fill="#575A89"/>
<path d="M144.716 147.075C144.716 147.075 151.833 99.0095 101.012 113.84C101.012 113.84 65.0588 106.527 52.3603 151.431L39.4712 198.509L45.371 195.443L47.9789 201.445L57.3945 204.023L61.5976 196.065L63.3689 205.861L140.716 215.075C140.716 215.075 106.402 193.882 106.558 157.083L113.035 164.196L144.716 147.075Z" fill="#2F2E41"/>
<path d="M183.184 439.348L188.033 432.985L187.238 432.379L190.507 428.089C191.272 427.086 191.831 425.942 192.154 424.722C192.476 423.502 192.555 422.231 192.386 420.981C192.218 419.731 191.804 418.526 191.17 417.436C190.535 416.345 189.692 415.391 188.689 414.626L176.928 405.663C175.924 404.899 174.78 404.339 173.561 404.017C172.341 403.694 171.07 403.615 169.82 403.784C168.569 403.953 167.365 404.366 166.274 405C165.184 405.635 164.229 406.478 163.465 407.481L135.712 443.899C134.947 444.903 134.388 446.047 134.065 447.266C133.743 448.486 133.664 449.757 133.833 451.007C134.001 452.258 134.415 453.462 135.049 454.553C135.684 455.643 136.527 456.598 137.53 457.363L149.291 466.325C150.295 467.09 151.439 467.649 152.659 467.972C153.878 468.294 155.149 468.373 156.399 468.205C157.65 468.036 158.854 467.622 159.945 466.988C161.035 466.354 161.99 465.511 162.755 464.507L175.722 447.491L176.517 448.097L181.366 441.734L180.571 441.128L182.389 438.742L183.184 439.348Z" fill="#3F3D56"/>
<path d="M173.717 427.075C176.478 427.075 178.717 424.837 178.717 422.075C178.717 419.314 176.478 417.075 173.717 417.075C170.955 417.075 168.717 419.314 168.717 422.075C168.717 424.837 170.955 427.075 173.717 427.075Z" fill="#D0CDE1"/>
<path d="M134.216 418.575C134.216 418.575 139.216 459.575 148.216 457.575C157.216 455.575 155.216 414.575 148.216 414.575C141.216 414.575 134.216 418.575 134.216 418.575Z" fill="#FFB8B8"/>
<path d="M103.216 221.575C103.216 221.575 99.2163 233.575 101.216 252.575C103.216 271.575 108.216 335.575 108.216 335.575C108.216 335.575 116.216 404.575 128.216 409.575L131.216 423.575L154.216 419.575L151.216 402.575C152.412 399.006 152.412 395.144 151.216 391.575C149.216 385.575 133.216 230.575 133.216 230.575C133.216 230.575 129.216 206.575 103.216 221.575Z" fill="#575A89"/>
</g>
<defs>
<clipPath id="clip0">
<rect width="977.716" height="782.417" fill="white"/>
</clipPath>
</defs>
</svg>
