<svg width="48" height="48" viewBox="0 0 48 48" fill="none" xmlns="http://www.w3.org/2000/svg">
<g clip-path="url(#clip0)">
<path d="M11.23 18C8.86 21.42 7 25.12 7 29.54C6.96959 31.8027 7.38521 34.0493 8.22312 36.1514C9.06103 38.2535 10.3048 40.1699 11.8835 41.7913C13.4621 43.4126 15.3447 44.7071 17.4236 45.6008C19.5026 46.4946 21.7373 46.97 24 47C26.2631 46.9713 28.4984 46.4968 30.578 45.6035C32.6575 44.7102 34.5406 43.4158 36.1195 41.7941C37.6984 40.1725 38.9421 38.2556 39.7796 36.1529C40.617 34.0502 41.0317 31.8031 41 29.54C41 23.82 38.16 19.88 34.94 15.54L24.18 0.999997C23.99 0.739997 20.44 5.61 20.18 6C18.8467 7.79333 17.5133 9.59666 16.18 11.41C14.51 13.59 12.76 15.73 11.23 18Z" stroke="#48B3EF" stroke-width="2" stroke-linecap="round" stroke-linejoin="round"/>
</g>
<defs>
<clipPath id="clip0">
<rect width="48" height="48" fill="white"/>
</clipPath>
</defs>
</svg>
