<svg width="1049" height="789" viewBox="0 0 1049 789" fill="none" xmlns="http://www.w3.org/2000/svg">
<g clip-path="url(#clip0)">
<g opacity="0.2">
<path opacity="0.2" d="M771.75 405.43C766.75 366.08 782.46 325.49 773.15 286.92C765.96 257.14 744.56 232.26 737.62 202.42C727.33 158.19 750.88 112.78 780.94 78.74C801.61 55.33 827.55 34.09 858.49 29.8C877.59 27.15 897.21 31.28 914.86 39.06C932.789 47.0993 948.869 58.7473 962.096 73.2772C975.324 87.807 985.415 104.907 991.74 123.51C995.74 135.6 998.17 148.25 1003.17 159.97C1011.79 180.17 1027.64 196.47 1037.48 216.11C1044.05 229.426 1047.76 243.967 1048.37 258.802C1048.99 273.636 1046.5 288.435 1041.06 302.25C1029.66 330.7 1005.79 354.49 1002.21 384.93C999.64 406.87 1007.87 430.93 997.21 450.23C989.14 464.82 972.53 472.23 956.79 477.69C920.2 490.51 869.09 511.15 832.38 491.5C800.23 474.36 776.4 441.79 771.75 405.43Z" fill="#D1FFD6"/>
<path opacity="0.2" d="M874.39 433.42C874.39 433.42 928.26 411.71 935.05 399.49C941.84 387.27 951.35 315.27 951.35 315.27" stroke="#333333" stroke-width="3" stroke-miterlimit="10"/>
<path opacity="0.2" d="M873.93 766.26V297.61" stroke="#333333" stroke-width="3" stroke-miterlimit="10"/>
</g>
<g opacity="0.3">
<path opacity="0.3" d="M288.54 376.43C293.54 337.08 277.83 296.49 287.14 257.92C294.33 228.14 315.73 203.26 322.67 173.42C332.96 129.19 309.41 83.78 279.35 49.74C258.68 26.36 232.74 5.08997 201.81 0.799974C182.71 -1.85003 163.09 2.27997 145.44 10.06C127.511 18.0993 111.431 29.7473 98.2037 44.2771C84.9763 58.807 74.8852 75.9069 68.56 94.51C64.56 106.6 62.13 119.25 57.13 130.97C48.51 151.17 32.66 167.47 22.82 187.11C16.252 200.425 12.5398 214.966 11.9216 229.801C11.3033 244.635 13.7927 259.434 19.23 273.25C30.63 301.7 54.5 325.49 58.08 355.93C60.65 377.87 52.42 401.93 63.08 421.23C71.15 435.82 87.76 443.23 103.5 448.69C140.09 461.51 191.2 482.15 227.91 462.5C260.05 445.36 283.89 412.79 288.54 376.43Z" fill="#D1FFD6"/>
<path opacity="0.3" d="M185.9 404.42C185.9 404.42 132.03 382.71 125.23 370.49C118.43 358.27 108.93 286.27 108.93 286.27" stroke="#333333" stroke-width="3" stroke-miterlimit="10"/>
<path opacity="0.3" d="M186.37 737.26V268.61" stroke="#333333" stroke-width="3" stroke-miterlimit="10"/>
</g>
<g opacity="0.4">
<path opacity="0.4" d="M463.43 404.36C459.73 375.36 471.32 345.51 464.43 317.12C459.13 295.19 443.43 276.88 438.27 254.91C430.69 222.35 448.03 188.91 470.16 163.91C485.38 146.68 504.48 131.04 527.25 127.91C541.31 125.91 555.76 129 568.74 134.73C581.94 140.648 593.778 149.223 603.516 159.919C613.254 170.616 620.683 183.205 625.34 196.9C628.34 205.8 630.07 215.11 633.76 223.74C640.11 238.61 651.76 250.61 659.01 265.07C663.843 274.873 666.573 285.577 667.026 296.497C667.479 307.417 665.644 318.311 661.64 328.48C653.25 349.42 635.64 366.94 633.04 389.35C631.23 405.43 637.23 423.13 629.37 437.36C623.43 448.1 611.2 453.52 599.62 457.58C572.68 467.02 535.06 482.21 508.03 467.74C484.4 455.09 466.85 431.14 463.43 404.36Z" fill="#D1FFD6"/>
<path opacity="0.2" d="M463.43 404.36C459.73 375.36 471.32 345.51 464.43 317.12C459.13 295.19 443.43 276.88 438.27 254.91C430.69 222.35 448.03 188.91 470.16 163.91C485.38 146.68 504.48 131.04 527.25 127.91C541.31 125.91 555.76 129 568.74 134.73C581.94 140.648 593.778 149.223 603.516 159.919C613.254 170.616 620.683 183.205 625.34 196.9C628.34 205.8 630.07 215.11 633.76 223.74C640.11 238.61 651.76 250.61 659.01 265.07C663.843 274.873 666.573 285.577 667.026 296.497C667.479 307.417 665.644 318.311 661.64 328.48C653.25 349.42 635.64 366.94 633.04 389.35C631.23 405.43 637.23 423.13 629.37 437.36C623.43 448.1 611.2 453.52 599.62 457.58C572.68 467.02 535.06 482.21 508.03 467.74C484.4 455.09 466.85 431.14 463.43 404.36Z" fill="black"/>
<path opacity="0.4" d="M538.99 424.98C538.99 424.98 578.65 408.98 583.65 399.98C588.65 390.98 595.65 337.98 595.65 337.98" stroke="#333333" stroke-width="3" stroke-miterlimit="10"/>
<path opacity="0.4" d="M538.65 670V325" stroke="#333333" stroke-width="3" stroke-miterlimit="10"/>
</g>
<g opacity="0.5">
<path opacity="0.5" d="M831.31 522.86C831.32 520.546 830.496 518.306 828.99 516.55C828.253 515.831 827.556 515.073 826.9 514.28C825.987 512.818 825.493 511.133 825.47 509.41C825.19 505.31 825.88 500.96 824.56 496.98C823.35 493.35 819.68 491.43 816.29 490.23C815.084 489.698 813.762 489.485 812.45 489.61C810.29 489.99 808.78 492.03 808.14 494.13C807.5 496.23 807.52 498.46 807.14 500.62C806.76 502.78 805.75 505.01 803.82 506.04C801.89 507.07 799.61 506.66 797.46 506.42C794.647 506.095 791.808 506.068 788.99 506.34C788.271 506.408 787.558 506.535 786.86 506.72C783.86 496.54 775.34 485.01 757.58 485.01C738.15 485.01 729.18 495.65 725.72 506.37H725.42C722.602 506.098 719.763 506.125 716.95 506.45C714.8 506.7 712.49 507.09 710.59 506.07C708.69 505.05 707.68 502.81 707.27 500.65C706.86 498.49 706.87 496.26 706.27 494.16C705.67 492.06 704.12 490.02 701.96 489.64C700.648 489.515 699.326 489.728 698.12 490.26C694.73 491.47 691.05 493.38 689.85 497.01C688.52 501.01 689.22 505.34 688.94 509.44C688.917 511.164 688.423 512.848 687.51 514.31C686.854 515.103 686.157 515.861 685.42 516.58C683.914 518.336 683.09 520.576 683.1 522.89V522.89C683.072 524.524 683.472 526.138 684.26 527.57C686.33 531.22 690.5 533.09 693.38 536.15C694.447 537.174 695.15 538.519 695.38 539.98C695.55 541.7 694.69 543.32 694.26 544.98C693.636 547.379 693.862 549.919 694.9 552.17C695.147 552.694 695.448 553.19 695.8 553.65C696.263 554.292 696.864 554.822 697.56 555.2C700.06 556.48 703.07 555.2 705.87 555.36C707.223 555.478 708.534 555.891 709.71 556.57H687.3C686.061 556.57 684.874 557.062 683.998 557.938C683.122 558.814 682.63 560.001 682.63 561.24V577.83C682.63 579.069 683.122 580.256 683.998 581.132C684.874 582.008 686.061 582.5 687.3 582.5H691.02L693.56 646.89L694.56 672.89L696.28 716.48C696.365 718.654 697.289 720.71 698.856 722.218C700.424 723.726 702.515 724.569 704.69 724.57H793.25C795.425 724.569 797.516 723.726 799.084 722.218C800.652 720.71 801.575 718.654 801.66 716.48L803.32 674.54L804.79 637.01L806.94 582.49H810.67C811.909 582.49 813.096 581.998 813.972 581.122C814.848 580.246 815.34 579.059 815.34 577.82V561.22C815.34 559.981 814.848 558.794 813.972 557.918C813.096 557.042 811.909 556.55 810.67 556.55H804.61C805.786 555.871 807.097 555.458 808.45 555.34C811.25 555.14 814.26 556.46 816.76 555.18C817.456 554.802 818.057 554.272 818.52 553.63V553.63C818.871 553.17 819.173 552.674 819.42 552.15C820.458 549.899 820.684 547.359 820.06 544.96C819.62 543.29 818.77 541.67 818.94 539.96C819.17 538.499 819.873 537.154 820.94 536.13C823.82 533.08 827.99 531.21 830.06 527.55C830.848 526.118 831.248 524.504 831.22 522.87L831.31 522.86ZM778.23 538.57C778.395 538.837 778.575 539.094 778.77 539.34C779.84 540.72 781.12 541.93 782.09 543.34C784.09 546.34 784.67 550.11 784.91 553.74C784.97 554.66 785.013 555.583 785.04 556.51H746.23C747.59 553.65 749.54 546.51 751.5 538.82C755.04 546.73 765.98 543.87 765.98 543.87C770.402 543.022 774.584 541.212 778.23 538.57V538.57ZM735.68 506.88C739.55 495.94 749.99 489.88 762.61 493.41C775.07 496.95 778.1 500.99 777.76 515.29C777.42 529.59 765.47 537.68 760.93 537.17C756.39 536.66 754.2 532.12 754.2 532.12L753.36 530.94C755.72 521.68 757.57 513.6 757.57 513.6C760.1 501.31 750.84 503.5 750.84 503.5C739.56 505.5 744.11 522.02 744.11 522.02C744.11 522.02 739.23 545.42 739.06 550.64C739.01 551.71 738.82 553.96 738.58 556.54H729.34C729.34 555.62 729.383 554.697 729.47 553.77C729.71 550.14 730.26 546.38 732.29 543.37C733.29 541.92 734.54 540.71 735.61 539.37C736.061 538.855 736.401 538.252 736.61 537.6C736.787 536.711 736.686 535.789 736.32 534.96L736.51 534.9H736.31V534.84C736.15 534.446 735.966 534.062 735.76 533.69L737.33 525.36C734.81 522.36 731.23 519.36 735.65 506.88H735.68Z" fill="url(#paint0_linear)"/>
</g>
<path d="M700.15 494.31C701.313 493.8 702.586 493.597 703.85 493.72C705.93 494.08 707.39 496.06 708 498.08C708.61 500.1 708.6 502.26 709 504.33C709.4 506.4 710.34 508.56 712.2 509.55C714.06 510.54 716.26 510.15 718.33 509.91C721.043 509.599 723.782 509.575 726.5 509.84C728.78 510.06 731.5 510.84 732.13 513.02C732.68 514.81 731.59 516.63 730.86 518.36C730.154 519.967 729.798 521.705 729.813 523.46C729.829 525.214 730.216 526.946 730.95 528.54C732.53 531.73 735.65 534.02 736.95 537.33C737.332 538.158 737.444 539.085 737.27 539.98C737.076 540.608 736.756 541.19 736.33 541.69C735.33 543.02 734.07 544.19 733.13 545.58C731.13 548.49 730.64 552.11 730.41 555.58C730.186 559.02 730.207 562.472 730.47 565.91C727.92 565.07 725.09 565.82 722.47 565.28C716.87 564.13 713.37 557.49 707.66 557.09C704.96 556.9 702.05 558.17 699.66 556.93C698.509 556.264 697.609 555.238 697.1 554.01C696.099 551.841 695.88 549.392 696.48 547.08C696.9 545.47 697.73 543.9 697.56 542.25C697.32 540.83 696.616 539.529 695.56 538.55C692.78 535.6 688.76 533.8 686.76 530.28C685.852 528.606 685.473 526.695 685.673 524.801C685.873 522.907 686.643 521.118 687.88 519.67C688.585 518.976 689.253 518.245 689.88 517.48C690.761 516.069 691.238 514.443 691.26 512.78C691.53 508.78 690.86 504.63 692.14 500.78C693.34 497.36 696.88 495.47 700.15 494.31Z" fill="#4DB6AC"/>
<path opacity="0.6" d="M700.23 494.42C700.23 494.42 711.59 557.52 726.35 565.05" stroke="#535461" stroke-miterlimit="10"/>
<path opacity="0.6" d="M731.83 511.89C731.83 511.89 719.66 513.56 707.5 526.06" stroke="#535461" stroke-miterlimit="10"/>
<path opacity="0.6" d="M709.64 533.36C706.376 530.512 702.561 528.368 698.432 527.06C694.302 525.752 689.948 525.31 685.64 525.76" stroke="#535461" stroke-miterlimit="10"/>
<path opacity="0.6" d="M737.18 537.36C737.18 537.36 720.09 538.81 713.76 545.36" stroke="#535461" stroke-miterlimit="10"/>
<path opacity="0.6" d="M716.33 551.49C709.92 550.682 703.426 552.093 697.93 555.49" stroke="#535461" stroke-miterlimit="10"/>
<path d="M814.15 494.31C812.987 493.8 811.713 493.597 810.45 493.72C808.37 494.08 806.91 496.06 806.3 498.08C805.69 500.1 805.7 502.26 805.3 504.33C804.9 506.4 803.96 508.56 802.1 509.55C800.24 510.54 798.04 510.15 795.97 509.91C793.257 509.599 790.518 509.575 787.8 509.84C785.52 510.06 782.8 510.84 782.17 513.02C781.62 514.81 782.71 516.63 783.44 518.36C784.146 519.967 784.502 521.705 784.487 523.46C784.471 525.214 784.084 526.946 783.35 528.54C781.77 531.73 778.65 534.02 777.35 537.33C776.968 538.158 776.856 539.085 777.03 539.98C777.224 540.608 777.544 541.19 777.97 541.69C778.97 543.02 780.23 544.19 781.17 545.58C783.17 548.49 783.66 552.11 783.89 555.58C784.113 559.02 784.093 562.472 783.83 565.91C786.38 565.07 789.21 565.82 791.83 565.28C797.43 564.13 800.93 557.49 806.64 557.09C809.34 556.9 812.25 558.17 814.64 556.93C815.791 556.264 816.691 555.238 817.2 554.01C818.201 551.841 818.42 549.392 817.82 547.08C817.4 545.47 816.57 543.9 816.74 542.25C816.98 540.83 817.684 539.529 818.74 538.55C821.52 535.6 825.54 533.8 827.54 530.28C828.448 528.606 828.827 526.695 828.627 524.801C828.427 522.907 827.657 521.118 826.42 519.67C825.715 518.976 825.047 518.245 824.42 517.48C823.539 516.069 823.062 514.443 823.04 512.78C822.77 508.78 823.44 504.63 822.16 500.78C820.96 497.36 817.42 495.47 814.15 494.31Z" fill="#4DB6AC"/>
<path opacity="0.6" d="M814.08 494.42C814.08 494.42 802.72 557.52 787.96 565.05" stroke="#535461" stroke-miterlimit="10"/>
<path opacity="0.6" d="M782.47 511.89C782.47 511.89 794.64 513.56 806.8 526.06" stroke="#535461" stroke-miterlimit="10"/>
<path opacity="0.6" d="M804.66 533.36C807.924 530.512 811.739 528.368 815.868 527.06C819.998 525.752 824.352 525.31 828.66 525.76" stroke="#535461" stroke-miterlimit="10"/>
<path opacity="0.6" d="M777.12 537.36C777.12 537.36 794.21 538.81 800.54 545.36" stroke="#535461" stroke-miterlimit="10"/>
<path opacity="0.6" d="M797.97 551.49C804.38 550.682 810.874 552.093 816.37 555.49" stroke="#535461" stroke-miterlimit="10"/>
<path d="M805.79 568.28L803.12 635.85L801.7 672.04L800.1 712.48C800.017 714.576 799.127 716.558 797.615 718.012C796.103 719.466 794.088 720.279 791.99 720.28H706.59C704.492 720.279 702.477 719.466 700.965 718.012C699.453 716.558 698.563 714.576 698.48 712.48L696.82 670.48L695.82 645.4L692.82 568.31L805.79 568.28Z" fill="#F0E4E4"/>
<path d="M808.79 558.28H689.79C687.305 558.28 685.29 560.295 685.29 562.78V578.78C685.29 581.265 687.305 583.28 689.79 583.28H808.79C811.275 583.28 813.29 581.265 813.29 578.78V562.78C813.29 560.295 811.275 558.28 808.79 558.28Z" fill="#D1FFD6"/>
<path opacity="0.15" d="M803.12 635.85L801.7 672.04C785.95 667.59 761.7 663.1 745.29 671.28C732.09 677.88 712.71 674.94 696.82 670.45L695.82 645.37C707.4 649.59 720.34 651.43 729.28 644.28C744.42 632.17 781.89 630.36 803.12 635.85Z" fill="#D1FFD6"/>
<path d="M456.29 720.77C456.29 720.77 475.03 695 494.29 697.35C494.29 697.36 473.73 719.21 456.29 720.77Z" fill="#4DB6AC"/>
<path opacity="0.6" d="M456.29 720.77C456.29 720.77 490.29 696.69 494.16 697.48" stroke="#535461" stroke-width="0.5" stroke-miterlimit="10"/>
<path d="M428.23 728.88C428.23 728.88 406.49 705.59 412.44 687.13C412.47 687.12 430.04 711.46 428.23 728.88Z" fill="#4DB6AC"/>
<path opacity="0.6" d="M428.23 728.88C428.23 728.88 411.04 690.96 412.55 687.28" stroke="#535461" stroke-width="0.5" stroke-miterlimit="10"/>
<path d="M478.61 724.22L475.51 773.96L474.98 782.42C474.873 784.127 474.12 785.729 472.873 786.899C471.626 788.07 469.98 788.721 468.27 788.72H408.33C406.62 788.721 404.974 788.07 403.727 786.899C402.48 785.729 401.727 784.127 401.62 782.42L400.89 770.75L397.98 724.22H478.61Z" fill="#F0E4E4"/>
<path opacity="0.1" d="M398.57 734.3H478.02L478.61 724.89H397.98L398.57 734.3Z" fill="black"/>
<path d="M476.79 716.83H399.79C397.305 716.83 395.29 718.845 395.29 721.33V729.13C395.29 731.615 397.305 733.63 399.79 733.63H476.79C479.275 733.63 481.29 731.615 481.29 729.13V721.33C481.29 718.845 479.275 716.83 476.79 716.83Z" fill="#D1FFD6"/>
<path opacity="0.15" d="M475.5 773.96L474.97 782.42C474.863 784.127 474.11 785.729 472.863 786.899C471.616 788.07 469.97 788.721 468.26 788.72H408.33C406.62 788.721 404.974 788.07 403.727 786.899C402.48 785.729 401.727 784.127 401.62 782.42L400.89 770.75C407.34 765.6 417.41 761.39 431.57 765.88C451.35 772.15 463.5 774.26 475.5 773.96Z" fill="#D1FFD6"/>
<g opacity="0.5">
<path opacity="0.5" d="M1020.15 613.56C955.23 605.66 891.71 676.36 871.94 700.73H867.23L865.97 681.88L873.59 681.37L874.02 671.49L865.31 672.07L864.94 666.62C864.903 666.193 864.952 665.763 865.083 665.355C865.215 664.947 865.427 664.569 865.706 664.244C865.986 663.919 866.327 663.653 866.711 663.462C867.094 663.27 867.512 663.158 867.94 663.13L873.39 662.76L872.81 654.05L860.81 654.85C851.23 657.13 852.9 667.42 852.9 667.42L853.27 672.87L847.82 673.24L848.48 683.04L853.93 682.67L855.14 700.67H812.23C810.968 700.67 809.757 701.171 808.864 702.064C807.971 702.957 807.47 704.168 807.47 705.43V715.75C807.469 716.848 807.847 717.914 808.542 718.765C809.236 719.616 810.204 720.201 811.28 720.42L811.34 721.31L814.03 764.37L814.89 778.16C815.017 780.176 815.908 782.068 817.382 783.45C818.855 784.833 820.8 785.601 822.82 785.6H893.62C895.64 785.601 897.585 784.833 899.058 783.45C900.532 782.068 901.423 780.176 901.55 778.16L902.18 768.16L905.11 721.36L905.17 720.47C906.246 720.251 907.214 719.666 907.908 718.815C908.603 717.964 908.981 716.898 908.98 715.8V705.49C908.98 704.228 908.478 703.017 907.586 702.124C906.693 701.231 905.482 700.73 904.22 700.73H898.59C960.11 677.36 1020.15 613.56 1020.15 613.56Z" fill="url(#paint1_linear)"/>
</g>
<path d="M868.29 708.28C868.29 708.28 940.29 609.28 1014.29 618.28C1014.29 618.28 935.29 702.28 868.29 708.28Z" fill="#4DB6AC"/>
<path opacity="0.6" d="M868.29 708.28C868.29 708.28 998.79 615.78 1013.79 618.78" stroke="#535461" stroke-miterlimit="10"/>
<path d="M906.29 708.9L902.83 764.42L902.24 773.86C902.113 775.759 901.269 777.54 899.878 778.839C898.487 780.139 896.654 780.862 894.75 780.86H827.85C825.946 780.862 824.113 780.139 822.722 778.839C821.331 777.54 820.487 775.759 820.36 773.86L819.55 760.86L816.3 708.92L906.29 708.9Z" fill="#F0E4E4"/>
<path opacity="0.1" d="M816.95 720.15H905.64L906.29 709.65H816.29L816.95 720.15Z" fill="black"/>
<path d="M904.79 700.65H817.79C815.305 700.65 813.29 702.665 813.29 705.15V714.9C813.29 717.385 815.305 719.4 817.79 719.4H904.79C907.275 719.4 909.29 717.385 909.29 714.9V705.15C909.29 702.665 907.275 700.65 904.79 700.65Z" fill="#D1FFD6"/>
<path opacity="0.15" d="M902.83 764.42L902.24 773.86C902.113 775.759 901.269 777.54 899.878 778.839C898.487 780.139 896.654 780.862 894.75 780.86H827.85C825.946 780.862 824.113 780.139 822.722 778.839C821.331 777.54 820.487 775.759 820.36 773.86L819.55 760.86C826.75 755.11 837.99 750.41 853.8 755.42C875.87 762.36 889.43 764.76 902.83 764.42Z" fill="#D1FFD6"/>
<g opacity="0.5">
<path opacity="0.5" d="M647.41 652.67H604.91C608.35 648.08 611.25 641.84 613.21 633.43C613.124 632.285 613.124 631.135 613.21 629.99C614.13 629.65 618.94 624.26 618.94 624.26L613.23 625.41C616.09 624.26 616.67 618.54 616.78 618.54L611.05 621.98C611.05 621.98 609.33 617.36 601.31 617.36C598.127 617.36 595.075 618.624 592.825 620.875C590.574 623.125 589.31 626.177 589.31 629.36C589.268 630.207 589.345 631.055 589.54 631.88L588.39 632.11C587.39 632.05 586.39 631.95 585.49 631.82L585.98 631.31C584.716 631.159 583.441 631.115 582.17 631.18C569.96 628.18 565.17 619.63 565.17 619.63C560.77 624.13 566.11 632.13 568.6 635.38C568.14 635.63 567.69 635.88 567.24 636.14C566.072 635.817 564.98 635.263 564.03 634.51C563.912 635.693 563.976 636.887 564.22 638.05C558.341 642.201 553.021 647.091 548.39 652.6H547.15C548.75 639.72 550.29 618.22 546.27 599.32C546.27 599.2 547.6 587.03 556.96 578.71C560.842 575.308 565.326 572.663 570.18 570.91L570.77 570.67C571.682 572.625 573.319 574.149 575.334 574.919C577.349 575.689 579.585 575.646 581.569 574.797C583.552 573.949 585.128 572.362 585.963 570.373C586.798 568.384 586.827 566.148 586.043 564.137C585.259 562.127 583.724 560.501 581.763 559.602C579.801 558.704 577.567 558.603 575.533 559.321C573.499 560.04 571.824 561.521 570.862 563.453C569.9 565.384 569.728 567.614 570.38 569.67L569.78 569.91C564.81 571.709 560.221 574.422 556.25 577.91C549.25 584.15 546.59 592.5 545.66 596.65C544.391 591.334 542.463 586.198 539.92 581.36C536.856 575.866 534.883 569.832 534.11 563.59C535.786 563.823 537.477 563.937 539.17 563.93C545.939 563.919 552.612 562.33 558.66 559.29C559.939 561.07 561.861 562.282 564.018 562.67C566.175 563.059 568.399 562.592 570.219 561.37C572.038 560.148 573.311 558.266 573.768 556.122C574.225 553.979 573.829 551.741 572.666 549.884C571.502 548.026 569.662 546.694 567.534 546.169C565.405 545.644 563.157 545.968 561.263 547.072C559.369 548.176 557.979 549.973 557.387 552.084C556.795 554.194 557.047 556.452 558.09 558.38C550.659 562.139 542.268 563.575 534.01 562.5C533.364 555.196 535.052 547.875 538.83 541.59C540.669 542.878 542.937 543.4 545.153 543.045C547.37 542.69 549.361 541.486 550.706 539.688C552.051 537.891 552.643 535.64 552.357 533.413C552.071 531.187 550.93 529.159 549.175 527.759C547.42 526.359 545.189 525.697 542.954 525.914C540.72 526.13 538.657 527.208 537.203 528.918C535.75 530.629 535.019 532.838 535.166 535.079C535.312 537.319 536.325 539.414 537.99 540.92C533.37 548.51 528.87 562.29 538.55 581.02C534.17 580.64 515.55 578.58 510 570.56C509.92 570.44 509.85 570.31 509.77 570.19C511.9 569.709 513.765 568.43 514.981 566.616C516.197 564.802 516.672 562.591 516.308 560.438C515.945 558.284 514.77 556.352 513.025 555.038C511.281 553.725 509.1 553.129 506.93 553.374C504.76 553.619 502.766 554.686 501.358 556.356C499.951 558.025 499.236 560.171 499.362 562.351C499.487 564.531 500.443 566.58 502.033 568.077C503.623 569.575 505.726 570.406 507.91 570.4C508.15 570.4 508.39 570.4 508.62 570.4C508.77 570.67 508.93 570.94 509.11 571.2C515.35 580.2 536.26 581.97 539.11 582.2C544.39 592.2 546.69 604.77 547.43 617.06C544.5 617.54 529.29 619.79 521.32 616.18C522.936 614.636 523.889 612.524 523.978 610.29C524.066 608.056 523.284 605.876 521.795 604.208C520.306 602.54 518.228 601.516 515.999 601.352C513.769 601.187 511.563 601.895 509.846 603.326C508.129 604.757 507.034 606.799 506.794 609.022C506.554 611.244 507.187 613.473 508.558 615.238C509.93 617.003 511.934 618.166 514.147 618.482C516.36 618.797 518.609 618.241 520.42 616.93C524.06 618.74 529.17 619.28 534.01 619.28C538.526 619.245 543.033 618.86 547.49 618.13C547.994 629.697 547.502 641.287 546.02 652.77H544.11C540.745 644.821 536.563 637.244 531.63 630.16C529.26 637.5 530.99 645.55 534.1 652.77H520.23C518.954 652.77 517.731 653.277 516.829 654.179C515.927 655.081 515.42 656.304 515.42 657.58V674.68C515.454 675.933 515.976 677.123 516.874 677.997C517.772 678.872 518.977 679.36 520.23 679.36H520.56L520.63 680.43H520.7L524.33 738.43L525.48 757C525.658 759.711 526.86 762.253 528.844 764.111C530.827 765.968 533.443 767.001 536.16 767H631.51C634.227 767.001 636.843 765.968 638.826 764.111C640.81 762.253 642.012 759.711 642.19 757L643.03 743.54L646.97 680.44H647.04L647.11 679.37H647.44C648.716 679.37 649.939 678.863 650.841 677.961C651.743 677.059 652.25 675.836 652.25 674.56V657.46C652.247 656.827 652.12 656.202 651.875 655.618C651.63 655.035 651.273 654.506 650.823 654.061C650.374 653.616 649.841 653.264 649.255 653.026C648.67 652.787 648.042 652.666 647.41 652.67ZM569.9 645.3C570.572 645.601 571.268 645.845 571.98 646.03C571.492 646.752 570.755 647.268 569.91 647.48C569.065 647.692 568.171 647.585 567.4 647.18C567.4 647.18 568.46 650.58 572.97 652.68H557.77C562.027 650.589 566.086 648.119 569.9 645.3V645.3Z" fill="url(#paint2_linear)"/>
</g>
<path d="M547.28 663.09L546.28 662.89C546.38 662.4 556.07 613.53 541.28 586.02C526.28 558.02 545.2 541.56 545.4 541.4L546.04 542.16C545.85 542.32 527.54 558.24 542.16 585.54C557.15 613.36 547.38 662.59 547.28 663.09Z" fill="#535461"/>
<path d="M541.53 569.23C539.65 569.257 537.771 569.103 535.92 568.77L536.14 567.77C541.505 568.557 546.975 568.216 552.201 566.769C557.426 565.323 562.293 562.803 566.49 559.37L567.12 560.15C559.877 566.01 550.847 569.215 541.53 569.23V569.23Z" fill="#535461"/>
<path d="M541.76 586.28C540.86 586.23 519.55 584.88 513.42 576C512.583 574.793 512.047 573.404 511.856 571.948C511.664 570.492 511.824 569.012 512.32 567.63L513.32 567.93C512.877 569.169 512.737 570.497 512.911 571.801C513.085 573.106 513.568 574.35 514.32 575.43C520.18 583.91 541.68 585.27 541.9 585.28L541.76 586.28Z" fill="#535461"/>
<path d="M548.13 602.43L547.13 602.33C547.13 602.21 548.42 590.44 557.46 582.4C561.174 579.143 565.464 576.609 570.11 574.93C573.18 573.69 575.61 572.7 577.4 570.46L578.18 571.09C576.18 573.53 573.56 574.61 570.48 575.86C565.942 577.499 561.75 579.971 558.12 583.15C549.37 590.93 548.14 602.36 548.13 602.43Z" fill="#535461"/>
<path d="M536.7 620.95C531.15 620.95 525.23 620.19 521.92 617.43C521.075 616.755 520.398 615.894 519.942 614.914C519.485 613.934 519.262 612.861 519.29 611.78H520.29C520.262 612.714 520.453 613.642 520.847 614.489C521.241 615.336 521.828 616.079 522.56 616.66C529.47 622.41 549.56 618.82 549.73 618.79L549.91 619.79C545.545 620.534 541.127 620.922 536.7 620.95V620.95Z" fill="#535461"/>
<path d="M547.29 655.77C547.29 655.77 566.03 630 585.29 632.35C585.29 632.36 564.73 654.21 547.29 655.77Z" fill="#4DB6AC"/>
<path d="M550.23 672.88C550.23 672.88 528.49 649.59 534.44 631.13C534.47 631.12 552.04 655.46 550.23 672.88Z" fill="#4DB6AC"/>
<path d="M643.29 663.28L638.67 737.28L637.88 749.87C637.722 752.413 636.599 754.8 634.741 756.544C632.882 758.287 630.428 759.255 627.88 759.25H538.68C536.132 759.255 533.678 758.287 531.819 756.544C529.961 754.8 528.838 752.413 528.68 749.87L527.6 732.5L523.27 663.25L643.29 663.28Z" fill="#F0E4E4"/>
<path opacity="0.1" d="M524.17 678.28H642.42L643.29 664.28H523.29L524.17 678.28Z" fill="black"/>
<path d="M642.79 652.28H523.79C521.305 652.28 519.29 654.295 519.29 656.78V672.78C519.29 675.265 521.305 677.28 523.79 677.28H642.79C645.275 677.28 647.29 675.265 647.29 672.78V656.78C647.29 654.295 645.275 652.28 642.79 652.28Z" fill="#D1FFD6"/>
<path opacity="0.15" d="M638.67 737.31L637.88 749.9C637.722 752.443 636.599 754.83 634.741 756.574C632.882 758.317 630.428 759.285 627.88 759.28H538.68C536.132 759.285 533.678 758.317 531.819 756.574C529.961 754.83 528.838 752.443 528.68 749.9L527.6 732.53C537.2 724.86 552.19 718.6 573.27 725.28C602.72 734.61 620.81 737.76 638.67 737.31Z" fill="#D1FFD6"/>
<path d="M545.79 549.78C550.208 549.78 553.79 546.198 553.79 541.78C553.79 537.362 550.208 533.78 545.79 533.78C541.372 533.78 537.79 537.362 537.79 541.78C537.79 546.198 541.372 549.78 545.79 549.78Z" fill="#4DB6AC"/>
<path d="M566.29 568.28C570.708 568.28 574.29 564.698 574.29 560.28C574.29 555.862 570.708 552.28 566.29 552.28C561.872 552.28 558.29 555.862 558.29 560.28C558.29 564.698 561.872 568.28 566.29 568.28Z" fill="#4DB6AC"/>
<path d="M578.29 580.28C582.708 580.28 586.29 576.698 586.29 572.28C586.29 567.862 582.708 564.28 578.29 564.28C573.872 564.28 570.29 567.862 570.29 572.28C570.29 576.698 573.872 580.28 578.29 580.28Z" fill="#4DB6AC"/>
<path d="M512.29 575.28C516.708 575.28 520.29 571.698 520.29 567.28C520.29 562.862 516.708 559.28 512.29 559.28C507.872 559.28 504.29 562.862 504.29 567.28C504.29 571.698 507.872 575.28 512.29 575.28Z" fill="#4DB6AC"/>
<path d="M519.29 620.28C523.708 620.28 527.29 616.698 527.29 612.28C527.29 607.862 523.708 604.28 519.29 604.28C514.872 604.28 511.29 607.862 511.29 612.28C511.29 616.698 514.872 620.28 519.29 620.28Z" fill="#4DB6AC"/>
<g opacity="0.5">
<path opacity="0.5" d="M0.0100164 319.1C-0.149984 328.62 2.66002 340.4 11.01 354.65C11.01 354.65 49.39 404.23 55.01 425.82L104.36 494.36C102.19 501.28 80.62 571.08 80.95 608.15C80.9379 610.822 81.0714 613.493 81.35 616.15C81.35 616.15 81.44 618.08 81.45 621.35C81.45 635.09 79.8 669.11 65.35 687.35H65.4H65.48L65.57 687.41H65.64H65.71L65.29 687.96L65.73 688.22C62.22 698.77 71.73 710.75 71.73 710.75L86.12 746.75H95.72L104.92 741.15L112.12 750.75C112.12 750.75 155.7 750.75 167.7 748.35C179.7 745.95 154.11 729.16 145.31 724.35C140.43 721.69 134.82 708.46 130.79 697.2C131.777 696.093 132.627 694.871 133.32 693.56C133.32 693.56 123.72 667.17 133.32 627.19C137.4 610.19 141.63 590.72 145.14 573.96C151.82 594.62 158.78 615.89 163.71 630.38C170.86 651.38 172.51 664.62 172.58 672.24C172.58 677.68 171.7 679.96 171.7 679.96L171.87 680.17C171.77 680.57 171.7 680.76 171.7 680.76L172 681.11C165 692.25 176.5 706.75 176.5 706.75L190.89 742.75H200.49L209.69 737.15L216.89 746.75C216.89 746.75 260.47 746.75 272.47 744.35C284.47 741.95 258.88 725.16 250.08 720.35C243.21 716.6 234.88 691.89 231.56 681.24L233.29 680.77L233.04 680.04L233.29 679.97L222.89 649.58C212.49 643.36 195.7 531.36 195.7 531.36C195.7 531.36 192.83 543.81 192.53 542.89C192.68 540.89 193.53 535.35 195.7 523.37C196.964 516.472 197.587 509.472 197.56 502.46C197.56 475.16 186.91 460.19 186.91 460.19C186.57 454.76 177.58 434.92 167.35 413.88L181.68 369.76C185.28 370.28 188.5 370.16 190.91 369.03L202.11 337.84C202.11 337.84 231.7 313.05 241.29 313.05C250.24 313.05 276.56 302.62 285.29 289.55C285.903 288.637 286.439 287.673 286.89 286.67C288.7 282.59 290.77 286.23 292.81 293.53C290.875 296.096 288.734 298.5 286.41 300.72C288.91 299.631 291.353 298.416 293.73 297.08C298.53 316.84 302.88 353.85 302.88 353.85V384.24L316.45 382.36L366.03 486.6C366.03 486.6 371.5 511.77 394.67 521.83L389.67 531.83L402.46 535.03L404.46 531.73L404.88 531.83L408.65 525.55C409.65 525.67 410.65 525.76 411.65 525.83C426.3 526.77 425.76 518.1 419.65 507.17L422.11 503.06C439.11 503.96 433 528.83 425.17 548.91C421.78 557.541 417.935 565.986 413.65 574.21C429.65 602.21 464.03 599 464.03 599L465.93 595.83H466.43L486.87 561.76C504.87 544.06 535.55 549.52 558.09 557.19C567.809 560.488 577.249 564.558 586.32 569.36V569.36L584.72 564.56L583.72 564.06L583.17 562.96L570.69 557.89L541.82 544.22L508.82 528.58C501.76 530.03 493.9 528.73 485.82 525.73C454.59 514.16 420.4 477.13 418.53 475.09L418.45 474.99L409.56 492.52C402.456 483.715 394.864 475.315 386.82 467.36L352 377.36L354 377.07L353.43 375.55L354 375.47L335.61 326.69C335.61 326.69 327.61 273.91 326.81 253.12C326.01 232.33 326.01 203.54 314.02 187.55L313.68 187.99L313.49 187.52L337.23 166.61C337.71 166.61 338.23 166.55 338.66 166.5L338.17 165.66C349.544 164.434 360.063 159.048 367.707 150.537C375.351 142.026 379.579 130.99 379.58 119.55C379.58 118.98 379.58 118.41 379.58 117.84C388.23 122.29 396.79 122.47 397.1 115.77C398.37 88.41 381.02 61.15 355.7 50.72C334.38 41.93 309.84 44.72 288.09 52.39C282.416 54.2208 277.012 56.8003 272.02 60.06C267.12 63.45 263.02 67.84 259.07 72.32C251.81 80.61 244.91 89.72 242.33 100.43C239.75 111.14 242.49 123.81 251.49 130.17C254.62 132.39 258.6 134.02 260.07 137.57C261.71 141.51 259.63 146.57 262.21 150.01C264.21 152.7 268.11 152.9 271.36 153.82C272.892 154.256 274.356 154.902 275.71 155.74C252.23 160.85 197.44 174.59 183.71 193.92C166.12 218.71 115.71 234.7 115.71 234.7L32.54 265.89L4.54002 283.48L5.10002 284.73L4.54002 285.08C4.54002 285.08 6.24002 288.88 8.61001 293.86C2.90588 301.023 -0.133912 309.944 0.0100164 319.1V319.1ZM148.47 376.17C145.54 370.44 142.98 365.49 141.05 361.78L146.93 355.45C146.93 355.45 147.87 356.02 149.5 356.93L148.47 376.17Z" fill="url(#paint3_linear)"/>
</g>
<path d="M231.43 670.58C231.43 670.58 242.43 708.93 251 713.58C259.57 718.23 284.65 734.71 272.91 737.06C261.17 739.41 218.52 739.41 218.52 739.41L211.52 730.02L202.52 735.5H193.13L178.99 700.36C178.99 700.36 164.12 681.58 178.99 670.62C193.86 659.66 231.43 670.58 231.43 670.58Z" fill="#333333"/>
<path opacity="0.1" d="M140.65 356.36C140.65 356.36 188.39 447.14 189.17 459.66C189.17 459.66 204.82 481.57 197.78 520.66C190.74 559.75 197.78 529.27 197.78 529.27C197.78 529.27 214.23 638.89 224.39 645.15L234.56 674.89C234.56 674.89 185.26 688.98 174.3 674.89C174.3 674.89 179 662.37 166.47 625.59C153.94 588.81 128.12 507.36 128.12 507.36L63.95 322.66L140.65 356.36Z" fill="black"/>
<path d="M140.65 355.58C140.65 355.58 188.39 446.36 189.17 458.88C189.17 458.88 204.82 480.79 197.78 519.88C190.74 558.97 197.78 528.49 197.78 528.49C197.78 528.49 214.23 638.11 224.39 644.36L234.56 674.1C234.56 674.1 185.26 688.19 174.3 674.1C174.3 674.1 179 661.58 166.47 624.8C153.94 588.02 128.12 506.63 128.12 506.63L63.95 321.93L140.65 355.58Z" fill="#3AD29F"/>
<path opacity="0.1" d="M73.04 325.58L135.95 506.63C135.95 506.63 161.78 588.02 174.3 624.8C186.82 661.58 182.13 674.1 182.13 674.1C185.31 678.19 191.74 679.91 199.25 680.28C188.87 680.73 179.25 679.43 175.09 674.1C175.09 674.1 179.79 661.58 167.26 624.8C154.73 588.02 128.91 506.63 128.91 506.63L64.73 321.93L73.04 325.58Z" fill="black"/>
<path d="M128.91 674.5C128.91 674.5 139.91 712.85 148.48 717.5C157.05 722.15 182.13 738.63 170.39 740.98C158.65 743.33 115.99 743.36 115.99 743.36L108.99 733.97L99.99 739.45H90.6L76.51 704.23C76.51 704.23 61.64 685.45 76.51 674.49C91.38 663.53 128.91 674.5 128.91 674.5Z" fill="#333333"/>
<path opacity="0.1" d="M140.65 356.36C140.65 356.36 188.39 447.14 189.17 459.66C189.17 459.66 204.82 481.57 197.78 520.66C190.74 559.75 197.78 529.27 197.78 529.27C197.78 529.27 214.23 638.89 224.39 645.15L234.56 674.89C234.56 674.89 185.26 688.98 174.3 674.89C174.3 674.89 179 662.37 166.47 625.59C153.94 588.81 128.12 507.36 128.12 507.36L63.95 322.66L140.65 356.36Z" fill="black"/>
<path opacity="0.1" d="M24.82 288.28C24.82 288.28 -8.82999 307.85 18.56 354.8C18.56 354.8 56.13 403.32 61.56 424.45L110.08 491.75C110.08 491.75 83.47 575.49 87.38 610.75C87.38 610.75 89.73 658.49 71.73 681.19C71.73 681.19 123.38 712.49 136.73 687.45C136.73 687.45 127.34 661.62 136.73 622.45C146.12 583.28 156.3 530.88 156.3 530.88C156.3 530.88 195.43 494.1 156.3 437.75L101.52 307.06L96.04 276.54L69.43 271.84L24.82 288.28Z" fill="black"/>
<path opacity="0.1" d="M23.23 289.06C23.23 289.06 -10.42 308.63 16.97 355.58C16.97 355.58 54.54 404.1 59.97 425.23L108.49 492.53C108.49 492.53 81.88 576.27 85.79 611.53C85.79 611.53 88.14 659.27 70.14 681.97C70.14 681.97 121.79 713.27 135.14 688.23C135.14 688.23 125.75 662.4 135.14 623.23C144.53 584.06 154.71 531.66 154.71 531.66C154.71 531.66 193.84 494.88 154.71 438.53L99.93 307.83L94.47 277.36L67.86 272.66L23.23 289.06Z" fill="black"/>
<path d="M23.23 288.28C23.23 288.28 -10.42 307.85 16.97 354.8C16.97 354.8 44.57 390.45 55.9 413.94C60.8245 424.025 66.6233 433.658 73.23 442.73L108.58 491.73C108.58 491.73 81.97 575.47 85.88 610.73C85.88 610.73 88.23 658.47 70.23 681.17C70.23 681.17 121.88 712.47 135.23 687.43C135.23 687.43 125.84 661.6 135.23 622.43C144.62 583.26 154.8 530.86 154.8 530.86C154.8 530.86 193.93 494.08 154.8 437.73L99.95 307.06L94.47 276.54L67.86 271.84L23.23 288.28Z" fill="#3AD29F"/>
<path opacity="0.1" d="M23.23 288.28L67.84 271.85L74.23 272.96L32.66 288.27C32.66 288.27 -0.990015 307.84 26.4 354.79C26.4 354.79 54 390.44 65.33 413.93C70.2385 424.013 76.0206 433.646 82.61 442.72L117.96 491.72C117.96 491.72 91.35 575.46 95.26 610.72C95.26 610.72 97.61 658.46 79.61 681.16C79.61 681.16 101.86 694.64 120.91 696.83C100.75 699.66 70.21 681.16 70.21 681.16C88.21 658.46 85.86 610.72 85.86 610.72C81.95 575.5 108.56 491.72 108.56 491.72L73.21 442.72C66.6206 433.646 60.8385 424.013 55.93 413.93C44.59 390.44 17 354.79 17 354.79C-10.4 307.84 23.23 288.28 23.23 288.28Z" fill="black"/>
<path d="M186.82 361.84L167.23 422.1C167.23 422.1 187.58 494.88 171.93 499.58C156.28 504.28 149.23 419.76 149.23 419.76L153.14 346.19L186.82 361.84Z" fill="#BE7C5E"/>
<path d="M348.82 372.8L384.82 465.93C384.82 465.93 445.82 525.41 409.08 523.06C372.34 520.71 364.47 484.71 364.47 484.71L311.23 372.8H348.82Z" fill="#BE7C5E"/>
<path d="M337.08 170.89L291.69 210.8L265.86 165.36C265.86 165.36 308.12 161.45 310.47 145.01C312.82 128.57 337.08 170.89 337.08 170.89Z" fill="#BE7C5E"/>
<path d="M314.39 195.15L308.91 181.84L259.6 192.8L252.56 276.54L290.13 271.84L305.78 235.84L312.04 202.19L314.39 195.15Z" fill="#BE7C5E"/>
<path opacity="0.1" d="M294.82 183.36L295.21 159.49C295.21 159.49 203.21 175.49 186.04 199.79C168.87 224.09 119.52 239.7 119.52 239.7L38.13 270.22L10.73 287.49C10.73 287.49 24.03 317.23 27.95 318.79C31.87 320.35 66.3 281.22 66.3 281.22L81.95 282.79L41.23 342.28L146.1 416.63L139.86 367.36L150.03 356.36C150.03 356.36 181.33 375.14 193.03 369.66L204.03 339.14C204.03 339.14 233.03 314.88 242.38 314.88C251.14 314.88 276.9 304.67 285.38 291.88C285.982 290.986 286.507 290.043 286.95 289.06C293.21 274.97 302.6 354.8 302.6 354.8V384.54L352.69 377.54L334.69 329.8C334.69 329.8 326.86 278.15 326.08 257.8C325.3 237.45 325.3 209.28 313.56 193.63L298.73 213.15L276.03 267.15L280.73 222.54L294.82 183.36Z" fill="black"/>
<path d="M294.82 181.84L286.6 158.75C286.6 158.75 203.23 174.02 186.04 198.28C168.85 222.54 119.52 238.19 119.52 238.19L38.13 268.71L10.73 285.93C10.73 285.93 24.03 315.67 27.95 317.23C31.87 318.79 66.3 279.66 66.3 279.66L81.95 281.23L41.23 340.71L146.12 415.06L139.86 365.76L150.03 354.76C150.03 354.76 181.33 373.54 193.03 368.06L204.03 337.54C204.03 337.54 233.03 313.28 242.38 313.28C251.14 313.28 276.9 303.07 285.38 290.28C285.982 289.386 286.507 288.443 286.95 287.46C293.21 273.37 302.6 353.2 302.6 353.2V382.94L352.69 375.94L334.69 328.2C334.69 328.2 326.86 276.55 326.08 256.2C325.3 235.85 325.3 207.68 313.56 192.03L298.73 211.58L276.03 265.58L280.73 220.97L294.82 181.84Z" fill="#252A62"/>
<path opacity="0.1" d="M194.23 229.19C194.23 229.19 151.23 279.28 149.62 302.76Z" fill="black"/>
<path opacity="0.1" d="M254.52 256.58C254.52 256.58 220.86 291.8 216.95 311.36Z" fill="black"/>
<path opacity="0.1" d="M149.65 318.36C149.65 318.36 148.87 336.36 149.65 345.75Z" fill="black"/>
<path opacity="0.1" d="M137.91 361.45C137.91 361.45 72.17 319.19 64.34 321.54Z" fill="black"/>
<path opacity="0.1" d="M311.23 145.84C313.48 130.11 335.81 168.16 337.71 171.44C336.21 171.587 334.69 171.663 333.15 171.67C327.01 171.676 320.933 170.433 315.289 168.016C309.645 165.599 304.552 162.058 300.32 157.61C306.13 154.68 310.54 150.84 311.23 145.84Z" fill="black"/>
<path d="M332.39 170.89C357.458 170.89 377.78 150.568 377.78 125.5C377.78 100.432 357.458 80.11 332.39 80.11C307.322 80.11 287 100.432 287 125.5C287 150.568 307.322 170.89 332.39 170.89Z" fill="#BE7C5E"/>
<path opacity="0.1" d="M328.23 119.28C325.54 124.15 322.94 129.22 322.23 134.74C321.47 140.74 323.04 146.84 323.12 152.92C323.125 159.431 321.447 165.832 318.25 171.504C315.052 177.175 310.443 181.924 304.87 185.29C303.922 185.737 303.09 186.397 302.44 187.22C302.026 187.943 301.799 188.757 301.78 189.59C301.55 192.64 302.35 195.69 302.32 198.75C302.29 201.81 301.08 205.22 298.25 206.4C305.329 215.339 310.448 225.668 313.274 236.715C316.099 247.762 316.568 259.28 314.65 270.52C313.39 277.65 311.07 284.78 306.57 290.46C301.71 296.61 294.67 300.64 287.5 303.8C292.23 299.08 297.28 293.7 297.5 287.02C297.72 281.35 294.41 276.24 291.84 271.17C286.231 260.314 284.031 248.017 285.53 235.89C287.11 224.24 292.43 212.75 290.29 201.2C289.29 195.72 286.61 190.61 285.91 185.08C285.41 181.13 285.91 177.08 285.1 173.19C284.398 170.095 282.884 167.243 280.713 164.928C278.542 162.614 275.793 160.919 272.75 160.02C269.57 159.12 265.75 158.93 263.75 156.29C261.23 152.96 263.26 147.97 261.66 144.11C260.22 140.64 256.33 139.04 253.26 136.87C244.46 130.65 241.77 118.25 244.26 107.77C246.75 97.29 253.54 88.37 260.65 80.26C264.49 75.87 268.53 71.58 273.32 68.26C278.263 65.0574 283.614 62.5347 289.23 60.76C310.52 53.27 334.54 50.53 355.4 59.13C380.18 69.34 397.16 96.02 395.92 122.79C395.23 136.72 358.23 120.36 361.17 97.93C362.39 88.62 350.74 90.69 343.5 97.77C337.23 103.94 332.49 111.61 328.23 119.28Z" fill="black"/>
<path d="M327.23 118.28C324.54 123.15 321.94 128.22 321.23 133.74C320.47 139.74 322.04 145.84 322.12 151.92C322.125 158.431 320.447 164.832 317.25 170.504C314.052 176.175 309.443 180.924 303.87 184.29C302.922 184.737 302.09 185.397 301.44 186.22C301.026 186.943 300.799 187.757 300.78 188.59C300.55 191.64 301.35 194.69 301.32 197.75C301.29 200.81 300.08 204.22 297.25 205.4C304.329 214.339 309.448 224.668 312.274 235.715C315.099 246.762 315.568 258.28 313.65 269.52C312.39 276.65 310.07 283.78 305.57 289.46C300.71 295.61 293.67 299.64 286.5 302.8C291.23 298.08 296.28 292.7 296.5 286.02C296.72 280.35 293.41 275.24 290.84 270.17C285.231 259.314 283.031 247.017 284.53 234.89C286.11 223.24 291.43 211.75 289.29 200.2C288.29 194.72 285.61 189.61 284.91 184.08C284.41 180.13 284.91 176.08 284.1 172.19C283.398 169.095 281.884 166.243 279.713 163.928C277.542 161.614 274.793 159.919 271.75 159.02C268.57 158.12 264.75 157.93 262.75 155.29C260.23 151.96 262.26 146.97 260.66 143.11C259.22 139.64 255.33 138.04 252.26 135.87C243.46 129.65 240.77 117.25 243.26 106.77C245.75 96.29 252.54 87.37 259.65 79.26C263.49 74.87 267.53 70.58 272.32 67.26C277.263 64.0574 282.614 61.5347 288.23 59.76C309.52 52.27 333.54 49.53 354.4 58.13C379.18 68.34 396.16 95.02 394.92 121.79C394.23 135.72 357.23 119.36 360.17 96.93C361.39 87.62 349.74 89.69 342.5 96.77C336.23 102.94 331.49 110.61 327.23 118.28Z" fill="#FDD835"/>
<path d="M289.31 208.06H299.56C301.051 208.06 302.26 206.851 302.26 205.36V205.28C302.26 203.789 301.051 202.58 299.56 202.58H289.31C287.819 202.58 286.61 203.789 286.61 205.28V205.36C286.61 206.851 287.819 208.06 289.31 208.06Z" fill="#252A62"/>
<path d="M389.91 525.8L402.43 528.93L419.32 500.78L421.21 497.63C439.48 498.12 431.58 525.73 423.26 546.03C418.39 557.91 413.38 567.29 413.38 567.29C427.93 592.76 458.04 591.84 462.2 591.58H462.69L482.69 558.24L483.82 556.36C501.55 537.23 532.37 544.25 554.36 553.05C563.23 556.588 571.807 560.821 580.01 565.71V565.71L578.44 561.01L577.44 560.52L564.68 554.52L536.43 541.14L504.12 525.83C497.21 527.25 489.52 525.98 481.62 523.04C451.06 511.72 417.62 475.47 415.76 473.48L415.68 473.39L389.91 525.8Z" fill="#4D8AF0"/>
<path opacity="0.1" d="M389.91 525.8L402.43 528.93L419.32 500.78L421.21 497.63C439.48 498.12 431.58 525.73 423.26 546.03C418.39 557.91 413.38 567.29 413.38 567.29C427.93 592.76 458.04 591.84 462.2 591.58H462.69L482.69 558.24L483.82 556.36C501.55 537.23 532.37 544.25 554.36 553.05C563.23 556.588 571.807 560.821 580.01 565.71V565.71L578.44 561.01L577.44 560.52L564.68 554.52L536.43 541.14L504.12 525.83C497.21 527.25 489.52 525.98 481.62 523.04C451.06 511.72 417.62 475.47 415.76 473.48L415.68 473.39L389.91 525.8Z" fill="black"/>
<path d="M387.56 528.93L400.08 532.06L402.02 528.83L418.86 500.76H419.31C435.99 501.64 429.97 525.98 422.31 545.63C418.993 554.067 415.231 562.322 411.04 570.36C426.69 597.75 460.34 594.62 460.34 594.62L462.2 591.52L481.47 559.4C481.87 558.97 482.28 558.55 482.69 558.15C500.32 540.83 530.34 546.15 552.39 553.68C561.919 556.935 571.172 560.947 580.06 565.68L576.93 559.42L564.71 554.42L548.94 548.01L501.8 528.86C494.44 530.36 486.3 528.7 478.06 525.13C448.52 512.38 417.52 475.46 415.8 473.38L415.72 473.29L387.56 528.93Z" fill="#4D8AF0"/>
<path d="M518.23 626.95C518.628 626.95 519.009 626.792 519.291 626.511C519.572 626.229 519.73 625.848 519.73 625.45C519.73 625.052 519.572 624.671 519.291 624.389C519.009 624.108 518.628 623.95 518.23 623.95C517.832 623.95 517.451 624.108 517.169 624.389C516.888 624.671 516.73 625.052 516.73 625.45C516.73 625.848 516.888 626.229 517.169 626.511C517.451 626.792 517.832 626.95 518.23 626.95Z" fill="#535461"/>
<path opacity="0.07" d="M411.04 570.36C426.69 597.75 460.34 594.62 460.34 594.62L462.2 591.52H462.69L482.69 558.18C500.32 540.86 530.34 546.18 552.39 553.71L554.39 552.99C554.892 552.828 555.38 552.628 555.85 552.39C556.02 552.22 553.34 550.56 548.99 548.06C545.64 546.13 541.3 545.27 536.51 542.65L504.17 527.36C497.26 528.78 489.57 527.51 481.67 524.57C480.51 525.24 479.31 524.41 478.08 525.2C468.916 531.06 460.354 537.813 452.52 545.36C445.34 552.54 432.31 549.48 423.27 546.02L422.32 545.64C418.999 554.073 415.234 562.325 411.04 570.36V570.36Z" fill="black"/>
<g opacity="0.2">
<path opacity="0.2" d="M584.23 605.36C584.379 608.705 584.834 612.028 585.59 615.29C586.1 617.21 586.81 619.08 587.18 621.03C588.33 627.2 586.07 634.34 589.83 639.36C589.228 639.762 588.496 639.923 587.781 639.81C587.065 639.697 586.419 639.318 585.97 638.75C585.122 637.588 584.66 636.189 584.65 634.75C584.25 629.46 585.49 623.86 583.38 618.99C582.27 616.41 580.27 614.22 579.61 611.49C578.81 608.18 580.11 604.72 579.86 601.33C579.66 598.57 578.44 595.99 577.78 593.33C575.66 584.7 579.34 575.71 578.9 566.83C585.16 576.92 583.35 593.53 584.23 605.36Z" fill="#4D8AF0"/>
</g>
</g>
<defs>
<linearGradient id="paint0_linear" x1="756.97" y1="724.55" x2="756.97" y2="485" gradientUnits="userSpaceOnUse">
<stop stop-color="#808080" stop-opacity="0.25"/>
<stop offset="0.54" stop-color="#808080" stop-opacity="0.12"/>
<stop offset="1" stop-color="#808080" stop-opacity="0.1"/>
</linearGradient>
<linearGradient id="paint1_linear" x1="211267" y1="145864" x2="211267" y2="116045" gradientUnits="userSpaceOnUse">
<stop stop-color="#808080" stop-opacity="0.25"/>
<stop offset="0.54" stop-color="#808080" stop-opacity="0.12"/>
<stop offset="1" stop-color="#808080" stop-opacity="0.1"/>
</linearGradient>
<linearGradient id="paint2_linear" x1="88438.1" y1="169838" x2="111811" y2="169838" gradientUnits="userSpaceOnUse">
<stop stop-color="#808080" stop-opacity="0.25"/>
<stop offset="0.54" stop-color="#808080" stop-opacity="0.12"/>
<stop offset="1" stop-color="#808080" stop-opacity="0.1"/>
</linearGradient>
<linearGradient id="paint3_linear" x1="-248577" y1="569042" x2="-248577" y2="71242.2" gradientUnits="userSpaceOnUse">
<stop stop-color="#808080" stop-opacity="0.25"/>
<stop offset="0.54" stop-color="#808080" stop-opacity="0.12"/>
<stop offset="1" stop-color="#808080" stop-opacity="0.1"/>
</linearGradient>
<clipPath id="clip0">
<rect width="1048.46" height="788.72" fill="white"/>
</clipPath>
</defs>
</svg>
